<svg height="75.269669mm" viewBox="0 0 78.434196 75.269669" width="78.434196mm" xmlns="http://www.w3.org/2000/svg"><g fill="#0258a1" transform="translate(-124.94866 -30.922463)"><path d="m144.41946 105.53878c-.7276-.37477-1.36506-.71895-1.41657-.76484-.0515-.0459 4.68909-6.759578 10.53468-14.919304l10.62834-14.835857 10.56584 14.704045c5.81121 8.087228 10.56584 14.791706 10.56584 14.898836 0 .10714-.53861.45647-1.1969.7763l-1.19689.58149-1.02638-.67923c-1.67004-1.10518-3.23322-1.43665-6.77508-1.43665-2.19472 0-3.59252-.12721-4.35542-.39637-1.31358-.46346-3.97604-2.31898-5.27884-3.678918-.50149-.52349-1.02344-.95179-1.15989-.95179s-1.11227.82088-2.16848 1.824178c-1.05622 1.00331-2.43927 2.12776-3.07345 2.49878-1.47248.86146-3.95774 1.25381-7.41488 1.17059-2.37581-.0572-2.87498.009-3.81004.50827-.59181.31575-1.23147.76138-1.42145.9903-.43476.52384-.41521.52668-2.00043-.28983zm11.77536-5.5366c1.95147-.579518 4.4131-3.022018 5.308-5.266732.57132-1.43306.62744-1.934988.5768-5.159375-.0925-5.88947.35037-6.067738-5.83236 2.347817-2.95357 4.020211-5.39435 7.428532-5.42396 7.574062-.0749.3681 1.58178.893168 2.8747.911098.59205.008 1.71562-.17487 2.49682-.40687zm20.25885.12468c.649-.163418 1.2405-.395028 1.31446-.514688.13489-.21826-10.81438-14.600802-11.22213-14.740965-.35111-.12069-.56244 6.462749-.25999 8.098901.97912 5.296554 5.34661 8.370712 10.16766 7.156752zm-38.95486.23376c-1.07595-1.119758-1.08059-1.133298-.69827-2.036758.56681-1.33941.30969-3.443605-.80466-6.58503-1.46094-4.118483-1.26821-6.367999.91637-10.695625.43724-.866167.75742-1.608008.71151-1.648537-.0459-.04053-.67878-.372954-1.40638-.738722-1.99364-1.002204-4.52379-2.960463-5.4155-4.191429-.45911-.63379-1.19398-2.37722-1.74207-4.132947-.90264-2.891478-1.02487-3.114485-2.5553-4.662261-1.47781-1.494557-1.6023-1.710803-1.54511-2.683864.0342-.582083.14048-1.19498.23614-1.361991.12032-.210079 5.50983 1.320719 17.48844 4.967296 9.52299 2.899026 17.33327 5.297858 17.35618 5.330741.079.113403-21.03475 29.425237-21.24624 29.495727-.11658.0389-.69937-.43661-1.29511-1.0566zm8.87366-15.139446c2.78675-3.995926 5.13265-7.436848 5.2131-7.646499.18713-.487658-5.19578.881126-7.17493 1.824467-3.47273 1.655238-5.82587 5.721966-5.30824 9.173792.17294 1.153253 1.56916 3.913555 1.97956 3.913555.12303 0 2.50375-3.269393 5.29051-7.265315zm-.63009-10.539493c4.1124-1.606856 4.51111-1.805064 4.08817-2.032322-.58585-.314796-16.87608-5.827454-17.22047-5.827454-.58886 0-.0948 3.261048.72125 4.760355 2.21952 4.077991 6.90925 5.249161 12.41105 3.099421zm33.09941 12.098492c-5.7916-8.08618-10.46217-14.770164-10.37904-14.853296.17963-.179626 33.39703-10.342619 34.16504-10.452929.45215-.06494.55201.116557.68606 1.246916.15289 1.289174.1299 1.346276-.90124 2.238822-1.49292 1.292246-2.45383 2.932332-3.25253 5.5514-.37972 1.245169-.90559 2.680663-1.16861 3.189986-.81516 1.578531-3.28745 3.621418-6.0793 5.023398-.65484.328843-1.22839.630954-1.27456.671359-.0462.0404.23668.70616.62854 1.479457 2.38935 4.715156 2.54493 6.596772.93048 11.253344-1.1599 3.345497-1.28818 4.4587-.70449 6.113062l.37372 1.05924-1.11134 1.090688c-.61124.59989-1.17236 1.0907-1.24694 1.0907-.0746 0-4.87419-6.615964-10.66579-14.702147zm9.20251 4.714129c.93907-1.461426 1.29524-2.843771 1.17194-4.548415-.21561-2.980767-2.45929-6.158458-5.31051-7.521195-1.92042-.91786-7.4264-2.363245-7.24986-1.903171.25184.656293 10.33042 14.964968 10.54085 14.964968.11551 0 .49692-.446484.84758-.992187zm3.41028-16.585346c2.53107-1.197385 4.1353-3.558709 4.36542-6.425623.087-1.083684.0352-1.661428-.14882-1.661428-.34941 0-17.28028 5.760162-17.46046 5.940335-.0717.07165.15413.239652.50173.373333.34761.133681 1.6693.673716 2.9371 1.200081 3.11397 1.292855 3.97179 1.478621 6.31733 1.368047 1.47872-.06971 2.39782-.279146 3.4877-.794745zm-24.67783-25.583824v-18.260055l1.52136.181486c.83674.09982 1.59058.257212 1.67519.349768.0846.09255.29291.658176.4629 1.256937.44148 1.555026 1.09526 2.267597 3.74663 4.083552 4.05102 2.774604 5.0063 4.222318 5.96224 9.035747l.4531 2.281539 3.49124-.14638c4.39373-.184219 5.34962.09947 8.67128 2.573423 2.53135 1.885333 4.28588 2.644402 6.12717 2.650818 1.03261.0036 1.13365.07554 1.79772 1.280086l.70361 1.276275-1.23278.409544c-.67803.225251-8.46583 2.857043-17.30622 5.84843l-16.07344 5.438884zm17.06563 8.98024c4.36562-1.314667 8.03309-2.478593 8.14993-2.586506.39019-.36038-1.51736-2.458733-2.99056-3.289692-1.31519-.741836-1.67159-.820184-3.70416-.814296-2.63916.0076-3.99476.545301-6.06272 2.40457-1.09737.98663-4.7852 6.26011-4.7852 6.842683 0 .263882.27245.18972 9.39271-2.556759zm-11.1125-2.598262c2.60161-3.214351 3.35363-4.773151 3.51488-7.285682.14624-2.278713-.37789-4.308061-1.51979-5.884413-.86929-1.200015-3.20683-2.696178-4.21857-2.700128l-.63597-.0025.17295 3.21654c.0951 1.769097.17296 5.936284.17296 9.260417 0 3.324132.0893 6.036465.19843 6.027406.10914-.009 1.15094-1.193305 2.31511-2.631658zm-28.17813 5.992557c-9.09505-3.089264-16.73963-5.695138-16.98796-5.79083-.41061-.158228-.393-.278668.19445-1.329725.63216-1.131065.68568-1.161888 2.50698-1.443799 2.17807-.337134 3.3476-.898345 5.6614-2.716691 2.52819-1.986832 3.79613-2.462389 6.64076-2.490714 1.30969-.01304 3.03609.06281 3.83646.168563l1.4552.192274.45702-2.349114c.58551-3.009595 1.3831-5.128763 2.34086-6.219588.41759-.475607 1.89327-1.66859 3.2793-2.651074 2.95087-2.091718 3.75117-2.962676 4.17361-4.542135.19225-.718805.46505-1.165087.71815-1.174868.22448-.0087.97369-.108862 1.66492-.222638l1.25677-.206865v18.214304c0 14.404273-.0692 18.210691-.33073 18.197022-.1819-.0095-7.77214-2.54486-16.86719-5.634122zm9.525-.87593c0-.555228-3.64447-5.762738-4.76957-6.815133-3.70817-3.46856-8.58629-3.524223-11.7573-.13416-.66012.705719-1.20021 1.402246-1.20021 1.547839s.80367.505631 1.78594.800085c.98226.294453 4.88156 1.480633 8.6651 2.635957 7.42663 2.267754 7.27604 2.227077 7.27604 1.965412zm4.23334-12.011329v-9.278246l-.59532.18407c-2.33265.721255-4.1599 2.403446-4.97725 4.582125-.79531 2.11993-.65284 5.39813.32334 7.440298.68523 1.433494 4.57147 6.35 5.01935 6.35.12643 0 .22988-4.175211.22988-9.278247z" stroke-width=".264583"/><path d="m188.61413 106.06858c-.14648-.0112-.23755-.0282-.35628-.0668-.11143-.0363-.23055-.0943-.33073-.16122-.0775-.0518-.13729-.10136-.20871-.17309-.11135-.11181-.18833-.21954-.25861-.3619-.19903-.40317-.18262-.88714.0434-1.27864.06-.10388.12696-.19077.21516-.27901.0617-.0618.0876-.0846.14493-.128.53293-.4034 1.28672-.35772 1.76533.10697.11903.11558.20562.23401.27731.37933.21495.43575.1809.95357-.0893 1.35798-.0509.0762-.10101.13682-.17027.20605-.11086.11078-.21845.18826-.35796.25776-.14953.0745-.31064.12037-.47978.1366-.0332.003-.16857.006-.19446.004zm.15486-.22839c.3614-.0281.68556-.22421.87773-.53098.23148-.36951.2298-.84173-.004-1.21054-.0801-.12616-.19597-.24594-.31918-.32989-.38547-.26262-.89366-.26262-1.27912 0-.10663.0727-.21334.17809-.29108.28762-.0904.12735-.15756.28781-.18625.44489-.0136.0742-.0171.1167-.0171.20632-.00001.0899.003.12931.0171.20547.0753.41554.38218.759.78771.88168.0729.0221.16377.0393.23834.0453.0439.003.13247.003.17616.00019zm-.67863-1.11315v-.73292l.3122.002c.17171.00082.33299.003.35841.005.0828.005.1584.0181.2066.0354.0829.0297.15749.0945.20094.17449.0378.0697.0531.14034.0462.21435-.007.0741-.0255.12818-.0646.18718-.0227.0343-.0794.0923-.1119.11442-.0562.0383-.11853.0608-.2055.0743l-.0312.005.0352.018c.0389.0199.0702.0422.0943.0673.0503.0523.0978.11336.15513.19965.0351.0528.23066.36443.23066.36756 0 .00082-.0644.002-.14315.002h-.14315l-.0141-.0249c-.008-.0137-.0451-.0797-.083-.14683-.0825-.14605-.0942-.16594-.13192-.22294-.0422-.0639-.0697-.0995-.10437-.13528-.0761-.0786-.11836-.0917-.29515-.0918l-.0759-.00003-.00082.31015-.00091.31014-.1171.00082-.1171.00082zm.64481-.0971c.0605-.009.1101-.0238.14014-.043.0234-.0149.0565-.0525.0696-.079.0146-.0295.0197-.0546.0198-.0957.00007-.0398-.004-.0576-.0216-.0932-.0297-.0605-.0867-.0982-.17211-.11407-.0279-.005-.0492-.007-.16539-.008-.0734-.002-.16633-.002-.20653-.002l-.0731-.00015v.22181.2218l.1895-.002c.14699-.00082.19626-.002.21969-.006z" stroke-width=".002839"/></g></svg>