<?xml version="1.0" standalone="no"?>
<!DOCTYPE svg PUBLIC "-//W3C//DTD SVG 20010904//EN"
 "http://www.w3.org/TR/2001/REC-SVG-20010904/DTD/svg10.dtd">
<svg version="1.0" xmlns="http://www.w3.org/2000/svg"
 width="194.000000pt" height="194.000000pt" viewBox="0 0 194.000000 194.000000"
 preserveAspectRatio="xMidYMid meet">
<metadata>
Created by potrace 1.11, written by Peter Selinger 2001-2013
</metadata>
<g transform="translate(0.000000,194.000000) scale(0.100000,-0.100000)"
fill="#000000" stroke="none">
<path d="M0 970 l0 -970 970 0 970 0 0 970 0 970 -970 0 -970 0 0 -970z m1040
308 l0 -82 65 64 65 64 30 -29 30 -29 -95 -96 c-86 -86 -95 -99 -95 -133 0
-37 0 -37 42 -37 40 0 48 5 135 92 l93 93 27 -28 27 -27 -64 -65 -64 -65 82 0
82 0 0 -40 0 -40 -82 0 -82 0 64 -65 64 -65 -27 -27 -27 -28 -93 93 c-87 87
-95 92 -135 92 -42 0 -42 0 -42 -37 0 -34 9 -47 95 -133 l95 -96 -30 -29 -30
-29 -65 64 -65 64 0 -82 0 -82 -40 0 -40 0 0 82 0 82 -65 -64 -65 -64 -27 27
-28 27 93 93 c87 87 92 95 92 135 0 42 0 42 -37 42 -34 0 -47 -9 -133 -95
l-96 -95 -29 30 -29 30 64 65 64 65 -82 0 -82 0 0 40 0 40 82 0 82 0 -64 65
-64 65 29 30 29 30 96 -95 c86 -86 99 -95 133 -95 37 0 37 0 37 42 0 40 -5 48
-92 135 l-93 93 28 27 27 27 65 -64 65 -64 0 82 0 82 40 0 40 0 0 -82z"/>
</g>
</svg>
